<svg width="30" height="35" viewBox="0 0 30 35" fill="none" xmlns="http://www.w3.org/2000/svg">
<path d="M18.2373 32.971C20.2914 33.609 21.3933 34.915 24.5677 34.2434C26.4813 33.8385 28.2642 32.6102 29.2602 30.2177C29.832 28.8444 29.9351 27.3871 29.7601 26.3177C29.6301 25.5238 28.9799 23.6755 28.8076 22.5476C28.518 20.6535 28.2955 19.1719 28.633 17.8818C29.079 16.1757 27.8715 15.7819 27.7087 15.7413C27.0573 15.5796 26.3568 15.9918 25.7551 16.6467C25.304 17.1377 24.9283 17.5177 24.5868 18.073C23.4925 19.8522 23.2143 22.15 23.2205 22.7382C23.2207 22.7683 21.7456 23.0051 20.16 23.9259C19.9586 24.0426 17.9702 25.1651 16.6187 27.6141C15.3809 29.8571 15.2505 31.8594 15.3438 32.6889C15.3438 32.6889 16.183 32.333 18.2373 32.971Z" fill="#DAA520"/>
<path d="M23.3689 15.1985C24.3662 15.9443 25.7825 15.6973 27.5912 13.3344C28.4899 12.1605 29.3168 9.51676 28.0749 8.48102C26.3896 7.07532 24.3374 9.2138 23.7459 10.0765C22.5879 11.7656 22.0174 14.1877 23.3689 15.1985Z" fill="#DAA520"/>
<path d="M19.0217 19.5347C20.0039 17.8427 20.8105 16.6706 21.0068 16.3258C21.193 15.9985 20.0791 12.2941 20.8598 5.86177C21.1001 3.88269 21.6133 2.54335 21.435 1.59697C21.0328 -0.537827 18.973 -0.156366 18.3497 0.590289C18.3095 0.638436 18.145 0.816906 17.9191 1.34996C17.6238 2.04652 17.2144 3.25705 16.7417 4.64062C16.136 6.41304 15.5276 8.67209 15.1453 10.5521C14.6837 12.8211 14.3505 14.8867 14.2417 15.5368C14.2161 15.691 14.1462 15.6867 14.1462 15.6867C14.1462 15.6867 13.8439 13.1622 13.7406 12.0241C13.6373 10.8858 13.7097 7.34966 13.7095 7.21347C13.7074 6.03288 13.9629 3.77231 14.1532 2.60342C14.4088 1.03356 13.5228 0.307068 12.7884 0.258274C11.1814 0.151794 10.9473 0.570555 9.62479 5.34087C9.50857 5.76007 8.83156 8.18393 8.34635 10.4464C7.86495 12.6914 7.36809 15.4412 7.36809 15.4412C7.36809 15.4412 6.72157 11.115 6.885 7.36246C6.93665 6.18013 7.01837 4.31815 7.11427 3.42945C7.18307 2.79383 6.85303 2.40001 6.80582 2.27943C6.46096 1.39832 5.18823 1.05178 4.29699 1.70561C3.79216 2.07605 3.59994 2.76714 3.2949 3.86389L3.29015 3.88096C3.09687 4.57578 2.8134 5.76527 2.6631 6.30374C2.27124 7.70857 1.96047 8.94642 1.5085 11.4689C1.16195 13.4027 1.08743 13.8867 0.854983 15.6704C0.683508 16.9877 0.575541 17.6439 0.332724 20.4915C-0.107397 25.6509 -0.275697 28.0435 0.888855 30.2796C1.53919 31.5285 2.58477 32.9613 4.85375 33.9222C4.58257 33.8072 6.07546 34.5144 8.18482 34.4539C9.44655 34.4177 10.6598 33.8122 12.107 33.1384C12.6398 32.8904 13.1974 32.8025 13.6329 32.6754C13.7743 32.6342 14.1431 30.7107 15.0043 28.2311C15.26 27.4948 15.6385 26.6892 15.9681 25.8946C16.2501 25.2143 16.465 24.4703 16.7777 23.7763C17.4754 22.2288 18.3139 20.7535 19.0217 19.5347Z" fill="#DAA520"/>
</svg>
